<?xml version="1.0" encoding="UTF-8"?><svg id="Layer_2" xmlns="http://www.w3.org/2000/svg" viewBox="0 0 356.73 345.92"><defs><style>.cls-1{fill:#fff;}.cls-2{fill:#31f29b;}.cls-3,.cls-4{fill:#f06c07;}.cls-5{fill:#1549a3;}.cls-4{stroke:#1549a3;stroke-miterlimit:10;stroke-width:13.08px;}</style></defs><g id="finalised_Logo"><g id="logoWtext"><g id="logo"><circle class="cls-4" cx="139.64" cy="113.73" r="107.19"/><g id="paw"><g id="fill"><path class="cls-3" d="m108.6,115.89c.25-1.49.31-3.05.13-4.68-.18-1.65-.59-3.27-1.17-4.86-1.19-3.21-3.17-6.23-5.83-8.78-1-.96-2.07-1.82-3.19-2.58-3.3-2.25-7.01-3.58-10.75-3.81-.39-.02-.78-.04-1.16-.04-4.24,0-7.98,1.49-10.63,4.26-2.89,3.02-4.2,7.27-3.7,11.97.54,4.98,3.03,9.83,7.01,13.64,6.93,6.63,16.5,8.24,22.95,4.37,1-.6,1.94-1.33,2.77-2.2,1.89-1.98,3.09-4.48,3.57-7.29Z"/><path class="cls-3" d="m145.14,93.52c1.49,3.46,4,6.24,7.41,7.7,4.04,1.73,8.55,1.29,12.62-.79,4.22-2.16,7.97-6.1,10.19-11.28.1-.23.18-.47.27-.7,3.93-9.99.77-20.71-7.26-24.15-8.22-3.52-18.45,1.9-22.82,12.08-.05.13-.09.26-.15.38-2.39,5.85-2.33,11.97-.27,16.77Z"/><path class="cls-3" d="m113.5,99.52c.45.32.9.62,1.36.89,3.48,2.07,7.28,2.72,10.86,1.83,4.06-1.01,7.44-3.91,9.51-8.15.11-.23.2-.48.31-.72,1.92-4.36,2.31-9.49,1.04-14.55-.2-.79-.44-1.54-.7-2.29-2.9-8.17-9.69-13.67-16.69-13.67-1.07,0-2.14.13-3.21.4-4.06,1.01-7.44,3.91-9.51,8.15-2.21,4.5-2.68,9.93-1.35,15.27.22.87.49,1.71.8,2.54,1.55,4.24,4.17,7.85,7.58,10.31Z"/><path class="cls-3" d="m162.45,119.86c-6.1-5.52-14.24-8.65-22.71-8.65-9,0-17.06,3.48-22.9,9.19-3.12,3.05-5.59,6.73-7.25,10.86-1.48,3.67-2.31,7.7-2.34,11.94-.05,6.91,1.01,15.89,6.34,19.44,5.14,3.42,13.35,1.09,19.33-1.46,2.08-.89,4.31-1.33,6.54-1.33,2.49,0,5,.55,7.33,1.65,5.15,2.43,12.36,4.68,17.51,1.6,4.69-2.81,7.45-9.78,7.97-20.16.17-3.4-.27-6.75-1.27-9.92-1.32-4.21-3.62-8.12-6.82-11.48-.56-.58-1.14-1.14-1.74-1.68Z"/><path class="cls-3" d="m182.79,94.61c-1.97,1.12-3.86,2.55-5.55,4.32-2.25,2.35-3.91,5.02-4.98,7.75-1.15,2.92-1.62,5.93-1.38,8.76.29,3.54,1.67,6.79,4.2,9.22.99.95,2.12,1.7,3.34,2.3,2.52,1.23,5.46,1.73,8.62,1.39,4.98-.54,9.83-3.03,13.64-7.01,7.66-8.01,8.63-19.55,2.17-25.73-5.03-4.81-13.11-4.96-20.05-1.01Z"/></g><path id="outline" class="cls-1" d="m209.11,89.08c-6.04-5.77-14.65-7.5-22.97-5.46,1.43-11.91-3.98-23.28-14.19-27.66-10.79-4.62-23.53,0-31.07,10.41-6.24-9.38-16.84-14.45-27.07-11.9-6.69,1.67-12.18,6.27-15.45,12.95-2.39,4.87-3.37,10.43-2.89,16.07-2.31-.74-4.7-1.21-7.1-1.36-7.42-.47-14.14,2.02-18.91,7.01-4.77,4.98-6.96,11.8-6.16,19.2.77,7.1,4.23,13.93,9.75,19.21,6.18,5.91,13.97,8.92,21.35,8.92,1.5,0,2.99-.14,4.44-.39-.4,2.29-.63,4.64-.64,7.06-.09,13.3,3.4,22.4,10.38,27.04,6.83,4.54,16.21,4.32,27.9-.67,2.03-.87,4.38-.8,6.44.18,6.14,2.9,11.25,3.96,15.44,3.96,4.62,0,8.11-1.29,10.6-2.78,7.52-4.5,11.67-13.74,12.36-27.47.1-2.09.03-4.16-.21-6.2,1.29.2,2.6.32,3.95.32.97,0,1.96-.05,2.96-.16,7.11-.77,13.93-4.23,19.21-9.75,11.11-11.61,11.95-28.9,1.88-38.53Zm-63.55-12.71c4.36-10.18,14.6-15.6,22.82-12.08,8.03,3.44,11.19,14.16,7.26,24.15-.09.23-.17.47-.27.7-2.22,5.18-5.97,9.12-10.19,11.28-4.07,2.09-8.59,2.52-12.62.79-3.4-1.46-5.92-4.24-7.41-7.7-2.06-4.8-2.13-10.92.27-16.77.05-.13.09-.26.15-.38Zm-40.42,10.32c-1.33-5.34-.86-10.77,1.35-15.27,2.08-4.24,5.46-7.13,9.51-8.15,1.07-.27,2.14-.4,3.21-.4,7,0,13.79,5.49,16.69,13.67.26.74.51,1.5.7,2.29,1.27,5.07.88,10.2-1.04,14.55-.11.24-.2.48-.31.72-2.08,4.24-5.46,7.13-9.51,8.15-3.58.9-7.39.24-10.86-1.83-.46-.27-.92-.57-1.36-.89-3.4-2.46-6.02-6.06-7.58-10.31-.3-.83-.58-1.67-.8-2.54Zm-25.82,34.33c-3.98-3.81-6.47-8.65-7.01-13.64-.51-4.7.81-8.94,3.7-11.97,2.65-2.77,6.39-4.26,10.63-4.26.38,0,.77.01,1.16.04,3.74.24,7.45,1.57,10.75,3.81,1.11.76,2.18,1.62,3.19,2.58,2.67,2.55,4.64,5.57,5.83,8.78.59,1.58,1,3.21,1.17,4.86.18,1.63.12,3.19-.13,4.68-.47,2.81-1.67,5.31-3.57,7.29-.83.87-1.77,1.59-2.77,2.2-6.46,3.87-16.03,2.26-22.95-4.37Zm92.96,21.93c-.52,10.37-3.27,17.34-7.97,20.16-5.15,3.08-12.36.84-17.51-1.6-2.32-1.1-4.83-1.65-7.33-1.65-2.23,0-4.46.44-6.54,1.33-5.98,2.55-14.19,4.88-19.33,1.46-5.33-3.55-6.39-12.53-6.34-19.44.03-4.24.86-8.27,2.34-11.94,1.66-4.13,4.14-7.81,7.25-10.86,5.84-5.71,13.89-9.19,22.9-9.19,8.46,0,16.6,3.13,22.71,8.65.6.54,1.18,1.09,1.74,1.68,3.2,3.36,5.5,7.27,6.82,11.48,1,3.18,1.44,6.52,1.27,9.92Zm28.41-21.59c-3.81,3.98-8.65,6.47-13.64,7.01-3.16.34-6.11-.16-8.62-1.39-1.22-.6-2.35-1.36-3.34-2.3-2.53-2.42-3.91-5.68-4.2-9.22-.23-2.83.24-5.83,1.38-8.76,1.08-2.74,2.73-5.4,4.98-7.75,1.69-1.77,3.58-3.2,5.55-4.32,6.95-3.95,15.02-3.81,20.05,1.01,6.46,6.18,5.49,17.72-2.17,25.73Z"/></g></g><g id="text"><path class="cls-2" d="m355.84,268.39c.45.56.74-5.36.89-6.41-.92,1.24-.99,7.95-.89,6.41Z"/><polygon class="cls-2" points="346.6 281.1 346.96 278.71 345.24 284.5 346.6 281.1"/><path class="cls-2" d="m338.94,280.31c-.2,10.11,2.94-1.36,3.98,2.33l.02,2.31,1.34-8.03c-1.76,1.14-4.42,6.3-5.33,3.39Z"/><path class="cls-2" d="m336.91,258.21c-.12,3.93-1.2,3.28.83,1.31-.05-.43-.05-.68-.08-1.01-.17.05-.39.01-.75-.31Z"/><path class="cls-2" d="m337.66,258.51c.83-.21-.21-3.33,0,0h0Z"/><path class="cls-2" d="m333.73,260.4l1.4-3.38c0-2.33-.89-2.94-.38-4.58-1.27,1.8-1.27,4.12-1.02,7.97Z"/><path class="cls-2" d="m332.01,267.63l.69-1.42c0-.98-.12-1.33-.69,1.42Z"/><path class="cls-2" d="m334.18,263.2l-1.47,3c0,1.64-.3,4.89.65-1.07-.38,2.96.12.13.82-1.93Z"/><path class="cls-2" d="m334.69,264.79c.39,2.24,1.03,3.69-.37,7.06,2.17-1.18,2.54-8.27.37-7.06Z"/><path class="cls-2" d="m337.59,290.66l.53,3.02,1.01-3.3c-.5,1.64-1.3-2.87-1.54.29Z"/><path class="cls-2" d="m327.61,254.55c-.28,2.13-.2,5.73-.39,8.47l1.03-2.37c-.26-1.5-.9-2.92-.64-6.09Z"/><path class="cls-2" d="m327.22,263.02l-1.55,3.55c1.02.54,1.38-1.19,1.55-3.55Z"/><polygon class="cls-2" points="330.75 278.75 333.43 271.24 330.36 278.82 330.75 278.75"/><polygon class="cls-2" points="323.12 253.84 324.29 248.96 322.35 256.31 323.12 253.84"/><path class="cls-2" d="m320.02,254.4c.91-4.04,0-6.99.79-9.46-.89.65-1.94,4.1-2.89,7.19.85-1.7,1.51-1.17,2.1,2.27Z"/><path class="cls-2" d="m316.4,256.63c.43-.95.95-2.67,1.52-4.5-.45.91-.94,2.23-1.52,4.5Z"/><path class="cls-2" d="m323.76,265.31c.04-1.3.2-4.7-.33-6.19l-.13,6.05c.14.05.3.09.46.14Z"/><path class="cls-2" d="m323.3,265.37v-.19c-.49-.18-.83-.35-.97-.44.12.07.42.25.97.63Z"/><path class="cls-2" d="m323.87,265.35s-.07-.03-.11-.04c-.01.59,0,.8.11.04Z"/><path class="cls-2" d="m328.18,273.01c-1.03,3.29-2.84,6.75-1.93,12.01.91-4.06.39-7.06,1.93-12.01Z"/><path class="cls-2" d="m323.71,272.92l1.12,1.5c.13-1.59.13-3.92.64-5.56l-1.77,4.06Z"/><polygon class="cls-2" points="322.9 274.77 323.71 272.92 323.29 272.36 322.9 274.77"/><path class="cls-2" d="m318.01,262.47c-.81,2.56-1.43,2.72-2.15,3.07.61,1.25,1.29,1.97,2,2.02.29-1.88.94-5.23.14-5.1Z"/><path class="cls-2" d="m320.53,264.41c-.05.13-.11.2-.16.33.02.52.07.69.16-.33Z"/><path class="cls-2" d="m309.18,264.84c0,.37,0,.72,0,1.1.04-.35.08-.67.13-1.04l-.13-.07Z"/><path class="cls-2" d="m317.87,268.7c.43,1.21.9-.22,1.4-2.05-.47.56-.94.91-1.41.91-.13.85-.19,1.41,0,1.13Z"/><path class="cls-2" d="m314.26,259.25c.16,1.29.38,2.38.62,3.4-.09-1.93-.36-4.95-.62-3.4Z"/><path class="cls-2" d="m320.36,263.06c.04-.09.07-.2.11-.26-.05-1.31-.09-.67-.11.26Z"/><path class="cls-2" d="m320.36,263.06c-.37.84-.73,2.3-1.09,3.59.38-.44.75-1.05,1.1-1.91-.02-.43-.03-1.08-.02-1.68Z"/><path class="cls-2" d="m303.34,303.2c.65-5.56,2.59-10.56,3.23-4.47,1.63-4.05,2.66-22.45,2.61-32.79-.28,2.43-.5,4.67-2.09,7.83.14,3.08,2.08,7.39.52,12.32-1.95,2.7-1.17-2.11-1.68-5.13,0,7.01-3.12,9.89-3.76,20.13l1.81-3.45c-.13,1.59-.91,4.07-.65,5.56Z"/><path class="cls-2" d="m311.52,266.75l.59-.64c-.49-1.03-.69-3.3-1.04-7.73-1.13,2.63-1.52,4.68-1.76,6.53l2.47,1.03-.26.81Z"/><path class="cls-2" d="m314.43,266.32c-1.01,6.02-2.51,8.47-2.4,15.1,1.56-.27,1.57-4.95,2.73-7.49-2.59,1.26,1.04-3.3-.38-6.92.58-.98,1.05-1.25,1.48-1.47-.37-.78-.7-1.73-.98-2.89,0,.15.01.26.02.38v-.02s0,.06,0,.1c.03.77.02,1.23-.06.78-.02.07-.05.1-.06.12-.1.84-.22,1.57-.34,2.27-.59-1.32.05-1.58.34-2.27.04-.29.08-.6.12-.9v-.08s-2.79,3.08-2.79,3.08c.44.89,1.1.78,2.33.2Z"/><path class="cls-2" d="m323.66,297.92c-.02-.54.02-.97.06-1.42-.23.73-.34,1.23-.06,1.42Z"/><path class="cls-2" d="m323.02,294.17c.26-.83.65-3.24,1.16-2.55.32,1.87-.29,2.9-.46,4.9.51-1.57,1.65-4.23.85-7.28l-.25.81c-.78-2.18-1.29-9.86-1.03-10.67-.25,5.48-.39,9.39-.26,14.8Z"/><path class="cls-2" d="m318.5,281.78l-2.33,2.77.51,5.35.26-3.16c1.03,1.35,1.17-2.55,1.56-4.96Z"/><polygon class="cls-2" points="309.24 261.8 310.15 255.43 308.07 264.34 309.24 261.8"/><polygon class="cls-2" points="306.5 262.3 307.15 256.75 306.11 260.03 306.5 262.3"/><path class="cls-2" d="m152.93,323.32l-.6,1.58c.28-.49.47-1.02.6-1.58Z"/><path class="cls-2" d="m157.19,323.75l.14-2.75c-.21,1.52-.31,2.63-.14,2.75Z"/><path class="cls-2" d="m240,257.52c-.58-5.27-1.12-13.41-1.38-7.13l-.08,6.13c.69-1.06,1.13-.35,1.46.99Z"/><path class="cls-2" d="m193.18,292.01c.06.61.13,1.24.19,1.87.28-2.1.55-4.06.78-5.84-.3,1.2-.63,2.55-.98,3.97Z"/><path class="cls-2" d="m191.74,317.34l-1.01-3.99c.21,1.39.54,2.72,1.01,3.99Z"/><path class="cls-2" d="m129.74,329.81l-.63,6.25c1.06-.04.57-3.18.63-6.25Z"/><path class="cls-2" d="m278.75,261.98c-.56-2.45-1.09-3.51-1.6-3.85.63,3.59.92,8.91,1.6,3.85Z"/><path class="cls-2" d="m155.22,258.3c-.39,1.11-.56,2.35-.56,3.72.39-1.04.62-2.22.56-3.72Z"/><path class="cls-2" d="m274.91,257.97c.08.62.19.94.29,1.47.65-.98,1.29-1.75,1.94-1.3-.46-2.67-1.12-4.35-2.23-.17Z"/><path class="cls-2" d="m46.94,328.53c-.09-.27-.17-.39-.25-.71.07.83.15.86.25.71Z"/><path class="cls-2" d="m12.3,271.3c.28-.47.76-.57,1.24-.76-.34-.35-.7-.24-1.24.76Z"/><path class="cls-2" d="m295.97,258.6c.61-.34.15-.67,0,0h0Z"/><path class="cls-2" d="m296.43,282.99c-.19.67-.36,1.54-.51,2.95.19-1.47.36-2.39.51-2.95Z"/><path class="cls-2" d="m266.14,295.53s-.03-.02-.05-.03c.07,1.21.06.98.05.03Z"/><path class="cls-2" d="m296.57,261.45c-.14-.77-.33-1.42-.56-1.88.07.48.24,1.1.56,1.88Z"/><path class="cls-2" d="m296.73,258.56c.17.29.31.46.44.64.17-1.01.17-1.65-.44-.64Z"/><path class="cls-2" d="m295.15,258.85c.34-.06.61.25.86.72-.07-.42-.09-.77-.04-.97-.18.08-.42.18-.83.25Z"/><path class="cls-2" d="m90.16,309.23c-.04-.19-.09-.31-.14-.58-.46,2.57-.23,2.15.14.58Z"/><path class="cls-2" d="m221.82,320.27c.03-.06.05-.22.08-.29-.02-.07-.05-.16-.07-.22v.51Z"/><path class="cls-2" d="m219.61,324.74c1.22-7.58,1.66-6.62,2.22-4.98l.22-17.68-2.44,22.66Z"/><path class="cls-2" d="m142.73,325.04l1.37,5.5c-1.69,9.07-2.88,5.94-1.6,13.69.23-19.2,5.35-1.95,5.63-21.11l.89,4.04c-.26-.19-.31.94-.57.75,1.72,9.2,1.41-13.87,3.7-11.12.79,1.47,1.33,4.26.76,6.54l1.83-4.73c.52.38.36,3.71-.16,3.34l2.74-1.5-.03.56c.42-3.01,1.36-7.65,1.82-9.62.66,2.76-.37,2.03-.23,4.43l1.58-4.63c.55,4.98-.77,9.79-1.8,9.06,1.17,19.17,1.32-4.81,4.21,6.41l-1.46,2.42c.76,10.89,1.92,6.96,3.41,13.78-.31-3.55-2.94-17.16-1.24-21.91.44,1.46,1.04,2.16,1.98-1.69-.1,6.82.79,5.16,1.87,4.79l-.23,9.03c1.21-2.59,1.2-7.19,1.96-11.25,1.29.91,1.42,7.92,1.6,13.82,2.04,1.47-1.21-11.25,1.28-12.91,1.66,3.49,2.95-.17,5.16-5.53,1.14,3.14-.34,5.52.03,8.12l1.25-7.18c.26.18.12,2.39.05,3.51.98-2.77.3-9.03,1.79-11.45.65-9.94,2.56,14.61,4.63,3.37.36,2.58-.37,5.53-.33,9.03,2.64-7.34,2.23-5.32,4.53-15.24l1.52,5.98c-1.04-6.82.81-14.8,2.45-21.35-.34-3.29-.64-6.17-.85-7.54l2.44-4.78c.23,1.49-.11,4.59-.61,8.34.18-.74.35-1.47.49-2.15.7,3.37.1,8.56-.64,13.59-.21-1.87-.42-3.76-.63-5.6-.74,5.47-1.45,11.53-1.51,16.82.18-1.04.49-1.92.81-2.42-.19,1.48-.33,2.81-.29,3.72.04.95.34-1.04.79-3.33l.17,10.08.26-3.99,2.7,6.41c2.44-10.06,4.82-24.91,8.35-28.94-1.12,7.35-.65,12.05-1.04,20.79-.55-9.29-2.73,3.84-4.37,1.9.86,1,.51,5.17.23,6.61l3.38-8.31c-.35,7.15.44,5.38,1.12,8.38-.05-14.16,2.66-9.32,4.09-13.6-.12,4.75-.62,9.58-2.1,8.38,1.23,10.71,2.86-16.51,4.14-7.4-.38.1-.55-.64-.8,1.77,1.05-4.18,3.04-.75,2.35,3.36l-.38.08c2.4,1.77,7.5.45,8.46-11.54-.05,1.55-1.02,14.45-1.29,16.87l6.43-40.17c-.91,10.29-.66,34.91-3,40.63.51,1.5,1.15,3.25,2.57-.33-.32-1.49-.24-14.95.36-15.87.92,11.55.74,6.19,2.07,16.07-.48-2.24,1.04-18.37,1.97-17.8-.28,2.41-.78,15.96-1.22,17.62l3.23-15.73c-.75,2.83-.84,13.44-.57,17.95-.07-3.12,2.01.4,2.73-1.14l-.79-3.73c2.51,2.54,3.93-22.16,6.56-21.16-.53,3.26-2.01,20.11-.79,22.19,1.1-8.09,5.14-38.9,7.97-44.99l.16,4.67,2.19-5.17c-1.98,12.14-6.8,37.66-9.11,47.55.76,3.74-.06,5.49,1.44,5.16.25,4.38-1.22,6.55-1.67,6.78l3.25,3.02c.46-9.5,3.25-9.34,3.64-17.24l-4.39,9.58c.44-9.47,3.91-26.78,6.29-24.92.37,3.81-1.6,16.84-1.76,20,.53-3.24,2.75-6.07,2.82-3.74l-1.39,4.99c1.11,3.66,3.1-12.41,4.1-3.25.53.65.81,12.32,1.31,6.72-.14-10.87,2.05-44.33,3.27-52.4.16.74,2.31,10.56,2.57,15.95.31,8.55-2.92,20.09-2.65,27.43.23-2.58.98-5.74,1.27-6.75.43,2.25-.84,8,.54,6.92.94-9.59,2.58,1.01,1.23-8.07,1.48-2.65,1.2,2.08,2.73,1.77,0-6.24,2.99-21.02,4.51-23.64-.27,2.43-.23,5.64-.21,7.1,2.57,1.08,3.62,5.55,6.06,5.84.03,2.34.97,5.26.12,9.34.49-1.67,1.09-4.89,1.87-5.06.74,8.42-1.79,1.15-1.53,11.21.57-5.57,2.6-7.52,3.97-10.91.42-8.64-2.34-1.87-3.71,1.52,1-11.88,3.94-24.16,7.02-29.42,2.32-2.77.22,7.75.72,6.09,3.67,2.41,5.16-20.44,7.61-11.58.58,7.68-1.33,15.06-1.55,20.54-1.93,2.71-2.12-5.04-3.28-4.84l1.07,3.71c-.76,2.47-2.04,4.27-2.45,2.03.44,6.9,6.36,1.89,8.72,8.45.76-2.48,1.92-5.02,1.78-8.1l-1.04.97c-.29-6.18,2.56-8.27,1.65-11.23,1.67-4.17,3.73-10.77,5.18-7.15l-.5,8.66c.21-2.52-.67-5.25-1.42-2.67,1.11-3.75,1.59,11.93,3.49.72l-.66-6.1c1.69-4.21,4.15-13.21,5.46-10.33.12-8.58-.46.94-.61-9.13-.24,12.49-3.99-.92-3.7,12.26-.03-11.68-1.52-5.1-2.09-15.1-.23,2.85.02,5.49-1.18,3.96-.14.83-.38,1.87-.53,2.48-.03-.08-.04-.13-.07-.22.02.12.03.22.04.34-.1.42-.11.51.02.12.2,1.27.31,2.79.27,4.39-1.29,6.47-3.38,6.06-4.41,9.37-.66-1.43.64-3.23.49-6.31l-1.54,4.95c.49-6.33-1.12-10.69,1.09-14.22l-1.66-.44c-.66-3.64-1.91-5.17-2.99-2.59-.67-1.44-2.64,6.81-1.5,1.93l-2.99,3.68.12-1.58c-2.56-1.02-6.27,10-8.29-1.66-1.02,1.52-2.09,3.4-3.41,1.49l.16-5.5c-1.29,1.82-2.98-5.75-3.92-.09-.07-14.82-5.29-3.63-7.09-6.4l-.6,7.14c-1.35-.51-2.82,1.42-4.72,4.18l-.34,6.32c-1.82,5.09-3.45-4.75-5.82-4.27.32-2.41.87-1.73,1.18-.24-1.84-14.48-6.52,10.01-8.37-.55-.77,2.26-1.17,1.45-1.52-.17.06-.01.12-.12.18-.32-.06-.08-.15-.1-.25-.09-.21-1.1-.42-2.39-.67-3.42.17,1.55.35,2.83.53,3.43-.49.1-1.27.84-2.08,2.38l.09-6.81c-.06.09-.11.07-.18.18-.56-2.55-.76,3.18-.68,8.31-.43,1.1-.83,2.42-1.19,4.04.06-10.99-2.08,3.59-2.21-8.15-.8,5.68-3.85,4.09-4.86,16.07.06-1.56-.11-2.32.28-2.4-.72-1.41-1.45-2.82-2.33.52l.11-8.66-2.33,11.53c-.78-5.32-1.07-8.4.31-14.99-3.04,10.1-2.25,3.75-4.89,13.78l.37-5.58c-.78.18-2.36,7.6-2.6,2.96-1.23-10.72-8.42-1.84-12.44-11.9.21,16.48-1.77-7.45-2.44,5.3-.11-3.9-.64-6.12.2-9.48-2.4,3.74-3.19-6.29-5.13,4.4-.12-3.92.69-5.69.54-8.01-.21.83-.84,3.36-.99,1.03-.15-2.33.45-3.26.87-4.94-2.35.57-2.99,12.56-3.53,23.81-.98-5.37-1.6-4.63-2.67,2.72-.29-3.69-.84-7.57.63-8.85-.78-.56-4.76-5.55-5.11,3.48-.18-2.3-1.1-.7-1.34.33-1.79-.59-1.92-1.42-3.72-.6l.45,1.49c-.99,10.87-1.53,2.39-2.99,3.67l.07-1.12c-3.08-7.93-1.49,3.73-4.51-5.31l.02,6.78c-.62,14.57-2.66-8.67-4.66-3.12l.6,3.88c-1.11,4.97-2.48-19.87-3.49-21.71-.2-1.27.39-2.03.73-2.96-2.57-8.64-.51,8.87-2.56,10.9-.29-4.79.69-12.16-.67-13.08-.63-3.89-4.18,15.48-5.91,6.28.36,3.69.72,7.38-.25,10.14-1.44,1.3-3.73-13.99-5.14-2.38-.17-1.01-.23-1.98-.23-2.89-1.13,2.99-3.61,4.96-4.31,11.26-.89-23.41-6.83,11.34-6.74-10.24l-3.38,1.16.09-2.21c-2.16-1.43-2.92,3.75-3.66,8.93-.5-1.47-.14-3.48-.1-4.61-3.16-4.35-3.5-3.42-6.06,7.35l-.32-7c-.67,4.08-4.66-10.96-7.68-2.74.02-.79.07-2.15.3-3.14-1.69,4.13-3.84-.7-5.71-3.37-1.86-2.66-3.43-3.17-3.82,9.6l-2.17,6.33c2.99,1.92-.21,11.07,1.09,15.28-1.11,1.52-3.14-7.63-1.75-8.97l.25,1.27c.24-13.3-3.77-4.64-3.91-13.68-5.82.8-11.77-6.39-17.33-6.74l1.03,10.3-1.94-.52c-.6-2.39-1-8.05.39-7.68-.96-5.82-2.11,4.99-2.05,7.24-2.86-4.08.55-12.08-.28-12.3l-1.09.82.3,1.2c-.73,4.26-.62,8.72-2.29,8.29-1.13-2.02-.82-6.34-1.25-6.72-.03-.73-.19-1.07-.65-.27l-2.48-.77,1.36,8.11c-.88,4.07-2.29-.32-.73,8.86-2.32-14.18-9.27-4.64-10.51-8.99-1.16,6.03-2.63,6.02-4.51,5.42.57,1.66,1.42,10.8-.21,9.78-.67-18.93-3.43-8-5.69-21.49,1.8,8.92-4.4,2.55-1.62,15.21-1.44-1.42-.61-7.06-1.97-11.42-1.32,3.78-3.15,2.73-5.16,1.09-2.02-1.62-4.21-3.84-6.09-2.43.18,2.48,1.2,6.2.7,9.96l-3.33-12.15c-.68,1.3.73,14.34-1.6,5.91.42,2.06,1.05,5.16.61,6.01-4.53-5.61-8.34-2.67-12.29-.95-1,.43-2,.78-3.04.9-1.06.14-2.16.04-3.34-.44-1.15-.49-2.48-1.3-3.89-2.67-.72-.68-1.44-1.5-2.26-2.45-.83-.94-1.71-2.03-2.65-3.28,2.37,4.41,1.55,5.08.61,5.47.9.98,1.32,6,2.18,9.25-1.85-2.81-4.11-5.43-6.44-8.05.2,1.16.31,2.04.28,2.75-.04.72-.17,1.24-.37,1.63-.39.79-1.03,1.06-1.67,1.32-.69.27-1.13.5-1.36,1.22-.21.71-.12,1.89.57,4.02l.69-2c.96,5.29,3.63,10.53,6.27,16.19,2.72,5.68,5.14,11.85,7.04,18.34-.71-2.92-.59-3.38,0-2.66.56.72,1.44,2.62,2.23,4.37.75,1.75,1.63,3.36,2.07,3.45.48.09.59-1.33.26-5.64.98,2.62.47,4.34,1.32,7.38-.65-5.78-.2-7.09,1.4-4.74l.12,1.44c3.07-1.96,5.47,3.46,9.82,6.73l-1.16-6.6c.98.78,1.42,2.84,2.03,4.45-.28-10.19-2.48-.26-3.02-11.47,1.48,6.68,2.97,6.53,4.5,6.64,1.53.11,3.05.46,4.27,8.11,1.33-.07-1.23-7.66.13-7.72l.8,4.13-.22-5.4c.99.79,1.97,5.96,2.36,9.48-.26-.4-.5,1.05-.7,1.37,1.63,4.79,3.02-2,3.58-.44l-1.54-2.44c3.33-4.27,8.34.83,11.33-7.94l-.52-3.13c2.39-6.03,2.51,3.3,5.41.38l-.06.76c.4-3.19,1.13-4.82,2.01-4.52-.54,3.74,1.94,7.08,1.18,11.23,2.65-6.45,1.19-5.01,2.51-16.85l.78,5.2c.41-4.77.33-7.27,1.83-8.71-1.03,4.56,1.45,7.91.35,13.93,3.87,11.27,4.24-11.83,6.6,4.84.78-14.56-3.24-7.9-2.56-11.04-.96-4.69.69-10.9,1.81-9.48,1.08.27,2.7,18.44,5.3,18.04-.26-.06-.23,1.04-.49.99,1.14,3.65,1.7-5.1,3.17.86.31-8.79,1.59.44,1.32-10.74l-2.32,2.68c1.24-2.98,2.02-16.1,4.56-9.85-.09,2.26-.66,5.25-1.05,6.93.79,3.27,1.19-2.24,2.01,1.12.23,11.2-2.86,2.55-3.97,11.14.9,4.69,2.44-8.21,2.19,3.93.45-15.44,2.64,1.84,3.99-9.99l.12,6.7c.24-1.06.72-4.25,1.24-4.09l-.63,8.72c1.18-7.46,2.98,6.39,4.21,2.31-2.87.3-.91-8.05-2.29-12.9,3.3-9.08,2.61,17.45,6.48,14.13-.51.96-2.14-3.97-1.38-7.1.8,1.36,1.88,3.91,2.43,7.41,2.6-1.46-.59-6.88.42-11.03,1.12,8.14,1.21-3.36,2.32-6l.18,6.81c3.12,4.29.47-14.23,3.33-9l-.95,9.47,1.37-2.47-.13,7.76c1.42-5.78,1.94-4.3,3.49-2.16-.44-4.79-.04-12.37,1.31-12.61.99,4.03-.4,6.49,1.49,5.48-.36,4.27-.73,9.63-1.67,3.37-.05,2.22-.35,4.29-.39,6.48,1.06,4.64,2.48,1.01,3.16.94-.27-.25-.59-.61-.77-1.58l2.61-9.48c.47,2.55.16,4.61-.16,6.63.55-.74.89-3.88,1.7-4.48-.14,5.54-.01,11.26-1.13,13.88l2.53-6.18c.21,2.4,1.42,6.6,1.1,8.64,1.47,3.23,3.44-10.79,5.4-6.5.09-1.08.28-2.11.69-2.9,1.83,1.24,3.44,8.02,5.56.42l1.24,9.93c1.67-2.26-1.68-12.51,1.12-16.26,1.99-3.17.75,8.47,1.45,11.24.97-5.01,2.72-15.2,4.53-7.11-.61,1.87-1.08.4-1.64,1.14Zm20.84-4.23c-.43,1.42-1.29,5.82-1.53,1.8.57-7.8.88-4.06,1.53-1.8Zm32.27-15.61c-.38,2.24-.81,1.11-1.25-1.49.4-.54.83-.27,1.25,1.49Zm93.35-41.67c-.03.13-.05.21-.07.33-.69-2.73-.45-1.66.07-.33Zm1.66,3.12c.28-.93.36-1.87.36-2.83-.29,1.71-.74,1.78-1.19,1.26-.03,1.79.11,3.04.83,1.57Zm-208.69-3.01l.46,1.77c-.77,2-.61.22-.46-1.77Z"/><path class="cls-2" d="m191.92,314.4c-.08-1.15-.07-2.42-.05-3.71-.2,1.14-.24,2.46.05,3.71Z"/><path class="cls-2" d="m129.86,328.66c-.02-.05-.04-.03-.06-.08-.03.41-.05.82-.05,1.23l.12-1.15Z"/><path class="cls-2" d="m256.57,321.76c-.31-1.01-.43-2.27-.48-3.56-.14,1.66-.07,3.08.48,3.56Z"/><path class="cls-2" d="m302.17,256.1l-1.4,1.64c.63-.28.7,1.23.89,2.33.13-1.59.11-3.91.51-3.98Z"/><path class="cls-2" d="m308.64,299.12c.26-.81.39-.05.65-.88l.27-3.16c-.78.13-1.56,2.62-.91,4.04Z"/><path class="cls-2" d="m301.11,278.75c-.46,5.72.5,3.85,1.45,2.88-.05.02-.11.06-.15-.01,1.04-7.96-.14-5.41-1.3-2.87Z"/><path class="cls-2" d="m302.78,281.46c.29-.24.57-.37.81-.07.41-3.19-.26-.7-.81.07Z"/><path class="cls-2" d="m293.66,263.1c.27,1.51.95-7.28.96-4.93,1.14-7.22-3.56,8.53-.96,4.93Z"/><polygon class="cls-2" points="299.97 297.62 300.35 290.54 299.32 296.17 299.97 297.62"/><path class="cls-2" d="m293.73,291.8l1.18,2.08c.09-1.18.33-1.86.6-2.37-.82-.31-1.61-1.8-1.77.29Z"/><path class="cls-2" d="m295.5,291.51c.43.18.86.07,1.21-1.06-.24.05-.78.24-1.21,1.06Z"/><polygon class="cls-2" points="297.9 299.55 297.64 298.04 296.73 297.43 297.9 299.55"/><path class="cls-2" d="m279.17,289.09l-1.67,1.89c-.36,2.4-.08,3.92.55,3,.5-1.65,1.14-2.54,1.12-4.9Z"/><path class="cls-2" d="m281.94,308.8c-.27-1.5-.15-3.08-.17-5.42l-.83,8.74,1-3.32Z"/><path class="cls-2" d="m277.45,310.45c-.36,2.41-2.74,6.78-.83,6.39.36-2.39,2.01-4.28.83-6.39Z"/><polygon class="cls-2" points="256.06 297.59 256.44 297.51 257.44 283.16 256.06 297.59"/><path class="cls-2" d="m234.31,330.66c1.51,3.55.93-8.84,2.24-4.45.61-3.37-1.07-3.58-.47-6.49-1.26,3.51-1.68,1.46-1.76,10.94Z"/><path class="cls-2" d="m236.07,319.72c.2-.55.42-1.23.66-2.15-.36.88-.54,1.56-.66,2.15Z"/><path class="cls-2" d="m3.25,265.85c-.57-.35-1.01-.71-1.47-1.07l-1.4-1.07c.95,1.36,1.87,2.73,2.78,4.11,0-.33,0-.65,0-.98l.09-1Z"/><path class="cls-2" d="m3.74,277.11l-3.74-8.36c.69,2.72,1.42,5.44,2.18,8.14.18-.53.55-1.58,1.56.22Z"/><path class="cls-2" d="m166.36,339.34l.12-2.21c-.13-2.39-.39-2.57-.9-2.96l.78,5.16Z"/><polygon class="cls-2" points="151.46 332.29 151.72 332.47 151.3 324.18 151.46 332.29"/><path class="cls-2" d="m138.88,342.82c.51.34,1.11-1.51,1.62-1.15-1.11,1.5-1.77-9.19-1.62,1.15Z"/><path class="cls-5" d="m72.24,250.54l-10.71,33.11h-11.82l-5.14-17.95-5.06,17.95h-12.11l-10.64-33.11h11.3l5.95,18.09,4.99-18.09h10.71l5.29,18.09,5.94-18.09h11.3Z"/><path class="cls-5" d="m98.73,250.54h11.16v33.11h-11.16v-3.72c-3.08,3.43-6.68,5-11.52,5-9.69,0-16.66-7.22-16.66-17.38s7.41-18.3,17.61-18.3c4.33,0,7.27,1.36,10.57,4.86v-3.58Zm-16.29,16.8c0,5.08,3.52,9.01,8.07,9.01s8.37-4.15,8.37-9.15c0-5.29-3.45-8.94-8.29-8.94s-8.15,3.79-8.15,9.08Z"/><path class="cls-5" d="m140.63,250.54h10.86v29.46c0,7.29-1.25,11.37-4.55,14.59-3.45,3.36-8.81,5.29-14.83,5.29-6.75,0-12.48-2.22-17.54-6.79l6.75-6.72c2.79,3,6.24,4.5,10.2,4.5,5.72,0,9.1-3.43,9.1-9.22v-1.64c-3.01,3.29-6.9,4.93-11.74,4.93s-9.32-2.07-12.4-5.65c-2.5-2.93-3.89-7.15-3.89-11.87,0-10.87,7.05-18.16,17.54-18.16,4.55,0,7.78,1.43,10.5,4.65v-3.36Zm-16.15,16.37c0,4.93,3.38,8.44,8.22,8.44,2.5,0,4.84-1,6.31-2.57.95-1.07,1.47-2.72,1.47-4.79,0-5.72-2.94-9.15-7.93-9.15s-8.07,3.29-8.07,8.08Z"/><path class="cls-5" d="m182.24,250.54h10.86v29.46c0,7.29-1.25,11.37-4.55,14.59-3.45,3.36-8.81,5.29-14.83,5.29-6.75,0-12.48-2.22-17.54-6.79l6.75-6.72c2.79,3,6.24,4.5,10.2,4.5,5.72,0,9.1-3.43,9.1-9.22v-1.64c-3.01,3.29-6.9,4.93-11.74,4.93s-9.32-2.07-12.4-5.65c-2.5-2.93-3.89-7.15-3.89-11.87,0-10.87,7.05-18.16,17.54-18.16,4.55,0,7.78,1.43,10.5,4.65v-3.36Zm-16.15,16.37c0,4.93,3.38,8.44,8.22,8.44,2.5,0,4.84-1,6.31-2.57.95-1.07,1.47-2.72,1.47-4.79,0-5.72-2.94-9.15-7.93-9.15s-8.07,3.29-8.07,8.08Z"/><path class="cls-5" d="m209.91,240.96c0,3.29-2.57,5.72-5.94,5.72s-5.95-2.43-5.95-5.79,2.5-5.79,6.02-5.79,5.87,2.43,5.87,5.86Zm-.37,42.69h-11.16v-33.11h11.16v33.11Z"/><path class="cls-5" d="m225.91,250.54v3.72c2.2-3.65,4.55-5,8.66-5,3.38,0,6.61,1.21,8.73,3.22,2.28,2.29,3.08,5,3.08,10.87v20.31h-11.16v-20.24c0-3.22-1.76-5.15-4.62-5.15s-4.7,2.07-4.7,5.29v20.09h-11.16v-33.11h11.16Z"/><path class="cls-5" d="m257.17,252.33l-7.34-1.79,3.23-15.52,9.47,2.22-5.36,15.09Z"/><path class="cls-5" d="m91.17,311.53l-10.71,33.11h-11.82l-5.14-17.95-5.06,17.95h-12.11l-10.64-33.11h11.3l5.95,18.09,4.99-18.09h10.71l5.29,18.09,5.94-18.09h11.3Z"/><path class="cls-5" d="m102.98,314.6c2.64-3,5.36-4.36,8.81-4.36,2.94,0,6.17,1.21,8.29,3.07,2.35,2.07,3.23,4.65,3.23,9.65v21.67h-11.16v-19.88c0-3.29-1.76-5.51-4.48-5.51-2.94,0-4.7,2-4.7,5.51v19.88h-11.16v-47.69h11.16v17.66Z"/><path class="cls-5" d="m137.77,330.4c.81,3.72,3.74,5.94,7.78,5.94,3.01,0,5.5-1.29,6.68-3.65l10.28,2.57c-1.69,3.29-2.94,4.79-5.5,6.72-3.45,2.65-7.27,3.93-11.67,3.93-11.08,0-19.08-7.51-19.08-18.02s7.49-17.66,18.5-17.66,18.79,7.51,18.79,18.8v1.36h-25.76Zm14.39-5.79c-.73-3.43-3.38-5.36-7.34-5.36s-6.39,1.93-7.12,5.36h14.46Z"/><path class="cls-5" d="m176,330.4c.81,3.72,3.74,5.94,7.78,5.94,3.01,0,5.5-1.29,6.68-3.65l10.28,2.57c-1.69,3.29-2.94,4.79-5.5,6.72-3.45,2.65-7.27,3.93-11.67,3.93-11.08,0-19.08-7.51-19.08-18.02s7.49-17.66,18.5-17.66,18.79,7.51,18.79,18.8v1.36h-25.76Zm14.39-5.79c-.73-3.43-3.38-5.36-7.34-5.36s-6.39,1.93-7.12,5.36h14.46Z"/><path class="cls-5" d="m204.7,344.63v-47.69h11.16v47.69h-11.16Z"/><path class="cls-5" d="m235.08,321.32v-.64c0-1.5-1.39-2.65-3.23-2.65-1.54,0-2.64.93-2.64,2.22,0,1.36,1.03,2.15,3.89,2.93,9.54,2.65,12.99,5.72,12.99,11.51,0,6.72-5.5,11.23-13.8,11.23s-13.5-4.22-13.72-11.15h10.57c.44,2.43,1.25,3.36,3.16,3.36,1.47,0,2.57-1,2.57-2.36,0-1.5-1.1-2.29-5.65-3.72-7.41-2.29-10.64-5.65-10.64-10.87,0-6.58,5.5-10.94,13.72-10.94s13.06,4.15,13.14,11.08h-10.35Z"/></g></g></g></svg>